<?xml version="1.0" encoding="utf-8"?>
<!-- Generator: Adobe Illustrator 19.2.0, SVG Export Plug-In . SVG Version: 6.00 Build 0)  -->
<svg version="1.1" id="Capa_1" xmlns="http://www.w3.org/2000/svg" xmlns:xlink="http://www.w3.org/1999/xlink" x="0px" y="0px"
	 viewBox="0 0 81.4 66.9" style="enable-background:new 0 0 81.4 66.9;" xml:space="preserve">
<style type="text/css">
	.st0{stroke:#FFFFFF;stroke-miterlimit:10;}
	.st1{fill:#6D6D6D;}
	.st2{fill:#00A0C6;}
</style>
<g>
	<g>
		<g>
			<path class="st0" d="M32.1,23.6"/>
		</g>
		<path class="st1" d="M0,65.9l1-0.5c2.6-1.4,5-2.7,7.5-3.9c1.4-0.7,1.8-1.3,1.8-3c0-11.1,0-22.3,0.1-33.4l0-8.9
			c0-0.8,0.1-1.6,0.1-2.5l0.2-4.4l2.7,1.4c3.3,1.9,6.5,3.7,9.7,5.6c3,1.7,6,3.5,9.1,5.2l10.4-5.7c-3.8-2.1-7.6-4.2-11.4-6.2
			C28,7.8,24.9,6,21.8,4.3c-4.5-2.5-7.5-4-9.6-4.3L12,0c-0.2,0-0.4,0-0.6,0C9.2,0,6.8,1.4,1.2,4.8c-0.4,0.3-1,1.2-1,1.7
			C0.1,19.7,0.1,32.9,0,46.2l0,7.6c0,3.4,0,6.8,0,10.4L0,65.9z"/>
	</g>
	<path class="st2" d="M30.6,37.8c1.7-0.9,3.3-1.8,4.6-2.5c1.1-0.6,2.3-1.2,3.6-1.7c2.4-1.1,4.9-2.2,5.8-3.7c1.1-1.9,0.8-4.7,0.6-7.6
		c-0.1-1.1-0.2-2.2-0.2-3.4c0-0.1,0-0.2,0-0.2L30.4,26c-3.5,1.8-5.5,3-8.7,4.9c-0.2,0.1-0.6,0.5-1.1,1c4.5,3.2,7.2,5.2,8.8,6.5
		L30.6,37.8z"/>
	<path class="st1" d="M20.1,47.4c3.3,2.4,6.7,4.7,10.1,7l18.4,12.5c0-0.2,0-0.4,0-0.5l0-2.9c0-5-0.9-8.4-5.5-10.9
		c-3.5-1.9-6.6-4.3-9.9-6.8l-2.1-1.5L19,35.3c-0.2,3-0.2,6.3,0.1,10.1C19.1,46.1,19.6,47.1,20.1,47.4z"/>
</g>
<g>
	<path class="st2" d="M79.1,54.9c-4.3-3.5-6.9-5.6-8.4-7l-1.3,0.6c-1.7,0.8-3.3,1.6-4.7,2.2c-1.1,0.6-2.4,1-3.7,1.5
		c-2.5,0.9-5.1,1.9-6,3.4c-1.1,1.8-1.1,4.6-1,7.6c0,1.1,0.1,2.3,0,3.4c0,0.1,0,0.2,0,0.2l15-6.6c3.7-1.7,5.8-2.8,8.9-4.5
		C78.1,55.7,78.6,55.3,79.1,54.9z"/>
	<path class="st1" d="M57.7,33.1c3.4,2.1,6.4,4.6,9.6,7.3l2,1.7l11.7,9.5c0.3-3,0.5-6.3,0.5-10.1c0-0.7-0.5-1.7-0.9-2
		c-3.2-2.6-6.5-5-9.7-7.5L52.9,18.5c0,0.2,0,0.4,0,0.5l-0.2,2.9C52.5,26.9,53.2,30.3,57.7,33.1z"/>
</g>
</svg>
