<?xml version="1.0" encoding="utf-8"?>
<!-- Generator: Adobe Illustrator 19.2.0, SVG Export Plug-In . SVG Version: 6.00 Build 0)  -->
<svg version="1.1" id="Capa_1" xmlns="http://www.w3.org/2000/svg" xmlns:xlink="http://www.w3.org/1999/xlink" x="0px" y="0px"
	 viewBox="0 0 305.4 70.7" style="enable-background:new 0 0 305.4 70.7;" xml:space="preserve">
<style type="text/css">
	.st0{fill:#6D6D6D;}
	.st1{stroke:#FFFFFF;stroke-miterlimit:10;}
	.st2{fill:#00A0C6;}
</style>
<g>
	<g>
		<path class="st0" d="M62.4,32.6c1.4,1.3,2.1,3.2,2.1,5.8v10.7h-4v-2.2c-0.5,0.8-1.3,1.4-2.2,1.8c-1,0.4-2.1,0.6-3.5,0.6
			s-2.6-0.2-3.6-0.7c-1-0.5-1.8-1.1-2.4-1.9c-0.6-0.8-0.8-1.8-0.8-2.8c0-1.6,0.6-3,1.8-3.9c1.2-1,3.1-1.5,5.8-1.5h4.7v-0.3
			c0-1.3-0.4-2.3-1.1-2.9c-0.8-0.7-1.9-1-3.4-1c-1,0-2,0.2-3,0.5c-1,0.3-1.8,0.8-2.5,1.3l-1.7-3.1c1-0.7,2.1-1.3,3.5-1.7
			c1.3-0.4,2.8-0.6,4.3-0.6C58.9,30.7,61,31.3,62.4,32.6z M58.5,45.5c0.8-0.5,1.4-1.2,1.8-2.1v-2.1h-4.4c-2.5,0-3.7,0.8-3.7,2.4
			c0,0.8,0.3,1.4,0.9,1.8c0.6,0.5,1.5,0.7,2.6,0.7C56.7,46.2,57.7,46,58.5,45.5z"/>
		<path class="st0" d="M85.3,32.7c1.4,1.3,2.1,3.3,2.1,6v10.5h-4.3v-9.9c0-1.6-0.4-2.8-1.1-3.6c-0.8-0.8-1.8-1.2-3.2-1.2
			c-1.6,0-2.8,0.5-3.7,1.4c-0.9,0.9-1.4,2.3-1.4,4.1v9.2h-4.3V30.9h4.1v2.4c0.7-0.8,1.6-1.5,2.7-1.9c1.1-0.4,2.3-0.6,3.6-0.6
			C82,30.7,83.9,31.3,85.3,32.7z"/>
		<path class="st0" d="M92.1,23.7h4.3v25.4h-4.3V23.7z"/>
		<path class="st0" d="M104.6,48.2c-1.5-0.8-2.6-1.9-3.5-3.3c-0.8-1.4-1.2-3-1.2-4.8s0.4-3.4,1.2-4.8c0.8-1.4,2-2.5,3.5-3.3
			c1.5-0.8,3.1-1.2,5-1.2c1.9,0,3.5,0.4,5,1.2c1.5,0.8,2.6,1.9,3.5,3.3s1.2,3,1.2,4.8s-0.4,3.4-1.2,4.8c-0.8,1.4-2,2.5-3.5,3.3
			c-1.5,0.8-3.2,1.2-5,1.2C107.7,49.4,106.1,49,104.6,48.2z M113.5,44.1c1-1,1.5-2.4,1.5-4.1c0-1.7-0.5-3.1-1.5-4.1
			c-1-1-2.3-1.6-3.9-1.6s-2.9,0.5-3.9,1.6c-1,1-1.5,2.4-1.5,4.1c0,1.7,0.5,3.1,1.5,4.1c1,1,2.3,1.6,3.9,1.6S112.5,45.2,113.5,44.1z
			 M111.3,23.7h5l-6,4.7h-3.7L111.3,23.7z"/>
		<path class="st0" d="M136.5,47.9c-1.9-1.1-3.5-2.5-4.6-4.4c-1.1-1.9-1.7-4-1.7-6.3c0-2.3,0.6-4.5,1.7-6.3c1.1-1.9,2.7-3.3,4.6-4.4
			s4.1-1.6,6.5-1.6c2,0,3.8,0.3,5.4,1c1.6,0.7,3,1.7,4.1,3l-2.9,2.7c-1.7-1.9-3.9-2.8-6.4-2.8c-1.6,0-3.1,0.4-4.4,1.1
			c-1.3,0.7-2.3,1.7-3,3c-0.7,1.3-1.1,2.7-1.1,4.3c0,1.6,0.4,3.1,1.1,4.3c0.7,1.3,1.7,2.3,3,3c1.3,0.7,2.8,1.1,4.4,1.1
			c2.5,0,4.7-0.9,6.4-2.8l2.9,2.7c-1.1,1.3-2.5,2.3-4.1,3c-1.6,0.7-3.4,1-5.4,1C140.6,49.5,138.5,48.9,136.5,47.9z"/>
		<path class="st0" d="M168.8,32.6c1.4,1.3,2.1,3.2,2.1,5.8v10.7h-4v-2.2c-0.5,0.8-1.3,1.4-2.2,1.8c-1,0.4-2.1,0.6-3.5,0.6
			c-1.4,0-2.6-0.2-3.6-0.7c-1-0.5-1.8-1.1-2.4-1.9c-0.6-0.8-0.8-1.8-0.8-2.8c0-1.6,0.6-3,1.8-3.9c1.2-1,3.1-1.5,5.8-1.5h4.7v-0.3
			c0-1.3-0.4-2.3-1.1-2.9c-0.8-0.7-1.9-1-3.4-1c-1,0-2,0.2-3,0.5c-1,0.3-1.8,0.8-2.5,1.3l-1.7-3.1c1-0.7,2.1-1.3,3.5-1.7
			c1.3-0.4,2.8-0.6,4.3-0.6C165.3,30.7,167.3,31.3,168.8,32.6z M164.9,45.5c0.8-0.5,1.4-1.2,1.8-2.1v-2.1h-4.4
			c-2.5,0-3.7,0.8-3.7,2.4c0,0.8,0.3,1.4,0.9,1.8s1.5,0.7,2.6,0.7C163.1,46.2,164,46,164.9,45.5z"/>
		<path class="st0" d="M177,48.8c-1.4-0.4-2.5-0.9-3.4-1.5l1.6-3.2c0.8,0.5,1.8,1,3,1.3c1.2,0.3,2.3,0.5,3.4,0.5
			c2.6,0,3.8-0.7,3.8-2c0-0.6-0.3-1.1-1-1.3c-0.7-0.3-1.7-0.5-3.1-0.7c-1.5-0.2-2.7-0.5-3.7-0.8c-0.9-0.3-1.8-0.8-2.5-1.6
			c-0.7-0.7-1-1.8-1-3.1c0-1.7,0.7-3.1,2.2-4.2c1.4-1,3.4-1.6,5.9-1.6c1.3,0,2.5,0.1,3.8,0.4c1.3,0.3,2.3,0.7,3.1,1.1l-1.6,3.2
			c-1.5-0.9-3.3-1.4-5.2-1.4c-1.3,0-2.2,0.2-2.9,0.6c-0.6,0.4-1,0.9-1,1.5c0,0.7,0.3,1.2,1,1.5c0.7,0.3,1.8,0.6,3.2,0.8
			c1.5,0.2,2.7,0.5,3.6,0.8c0.9,0.3,1.7,0.8,2.4,1.5c0.7,0.7,1,1.7,1,3c0,1.7-0.7,3.1-2.2,4.1c-1.5,1-3.5,1.5-6.1,1.5
			C179.9,49.4,178.4,49.2,177,48.8z"/>
		<path class="st0" d="M203.7,48.1c-0.5,0.4-1.1,0.7-1.8,0.9s-1.5,0.3-2.3,0.3c-2,0-3.6-0.5-4.7-1.6c-1.1-1-1.6-2.6-1.6-4.6v-8.8h-3
			V31h3v-4.2h4.3V31h4.9v3.4h-4.9v8.7c0,0.9,0.2,1.6,0.7,2c0.4,0.5,1.1,0.7,1.9,0.7c1,0,1.8-0.3,2.4-0.8L203.7,48.1z"/>
		<path class="st0" d="M223,41.4h-14.3c0.3,1.3,0.9,2.4,2,3.2c1.1,0.8,2.4,1.2,3.9,1.2c2,0,3.7-0.7,5-2l2.3,2.6
			c-0.8,1-1.9,1.7-3.1,2.2s-2.7,0.8-4.2,0.8c-2,0-3.8-0.4-5.3-1.2c-1.5-0.8-2.7-1.9-3.5-3.3c-0.8-1.4-1.2-3-1.2-4.8
			c0-1.8,0.4-3.4,1.2-4.8c0.8-1.4,1.9-2.5,3.4-3.3c1.4-0.8,3.1-1.2,4.9-1.2c1.8,0,3.4,0.4,4.8,1.2c1.4,0.8,2.5,1.9,3.3,3.3
			s1.2,3.1,1.2,4.9C223.1,40.4,223,40.8,223,41.4z M210.4,35.3c-0.9,0.8-1.5,1.9-1.7,3.2H219c-0.2-1.3-0.7-2.4-1.7-3.2
			c-0.9-0.8-2.1-1.2-3.5-1.2C212.5,34.1,211.3,34.5,210.4,35.3z"/>
		<path class="st0" d="M226.5,23.7h4.3v25.4h-4.3V23.7z"/>
		<path class="st0" d="M235.8,23.7h4.3v25.4h-4.3V23.7z"/>
		<path class="st0" d="M262.1,30.9l-7.8,18.3h-4.4L242,30.9h4.4l5.7,13.5l5.8-13.5H262.1z"/>
		<path class="st0" d="M268,23.7h5l-5.9,4.7h-3.7L268,23.7z M264.1,30.9h4.3v18.3h-4.3V30.9z"/>
	</g>
</g>
<g>
	<g>
		<path class="st0" d="M61.7,62.4h0.7v4c-0.5,0.4-1,0.8-1.7,1s-1.4,0.3-2.1,0.3c-1.1,0-2-0.2-2.8-0.7c-0.8-0.5-1.5-1.1-2-1.9
			c-0.5-0.8-0.7-1.7-0.7-2.8c0-1,0.2-1.9,0.7-2.8c0.5-0.8,1.1-1.5,2-1.9c0.8-0.5,1.8-0.7,2.9-0.7c0.8,0,1.5,0.1,2.2,0.4
			c0.7,0.2,1.2,0.6,1.7,1.1L62,58.9c-0.4-0.4-0.9-0.8-1.5-1s-1.2-0.3-1.8-0.3c-0.9,0-1.7,0.2-2.5,0.6c-0.7,0.4-1.3,1-1.7,1.7
			s-0.6,1.5-0.6,2.4c0,0.9,0.2,1.7,0.6,2.4s1,1.3,1.7,1.7s1.5,0.6,2.5,0.6c1.2,0,2.2-0.3,3-1V62.4z"/>
		<path class="st0" d="M67.1,60.1c0.5-0.3,1.1-0.5,1.9-0.5v0.7l-0.2,0c-0.9,0-1.6,0.3-2.1,0.8S66,62.6,66,63.5v4.1h-0.8v-7.9h0.7
			v1.7C66.2,60.9,66.6,60.5,67.1,60.1z"/>
		<path class="st0" d="M75.5,60.4c0.5,0.5,0.8,1.2,0.8,2.2v5h-0.7v-1.4c-0.3,0.5-0.6,0.8-1.1,1.1c-0.5,0.3-1.1,0.4-1.7,0.4
			c-0.9,0-1.6-0.2-2.1-0.6c-0.5-0.4-0.8-1-0.8-1.6c0-0.7,0.2-1.2,0.7-1.6c0.5-0.4,1.2-0.6,2.3-0.6h2.7v-0.6c0-0.7-0.2-1.3-0.6-1.7
			c-0.4-0.4-1-0.6-1.8-0.6c-0.5,0-1,0.1-1.5,0.3c-0.5,0.2-0.9,0.4-1.2,0.7l-0.4-0.5c0.4-0.4,0.9-0.6,1.4-0.8
			c0.6-0.2,1.1-0.3,1.7-0.3C74.3,59.7,75,59.9,75.5,60.4z M74.5,66.7c0.5-0.3,0.8-0.7,1-1.3v-1.5h-2.7c-0.8,0-1.3,0.1-1.7,0.4
			s-0.5,0.7-0.5,1.2c0,0.5,0.2,0.9,0.6,1.2c0.4,0.3,0.9,0.4,1.6,0.4C73.5,67.1,74.1,67,74.5,66.7z"/>
		<path class="st0" d="M79.9,58.6v1.2h2.5v0.7h-2.5v7.3h-0.8v-7.3h-1.5v-0.7h1.5v-1.2c0-0.7,0.2-1.2,0.6-1.6
			c0.4-0.4,0.9-0.6,1.6-0.6c0.3,0,0.6,0,0.9,0.1c0.3,0.1,0.5,0.2,0.7,0.4l-0.3,0.6c-0.3-0.3-0.7-0.4-1.2-0.4
			C80.4,57,79.9,57.5,79.9,58.6z M85.2,57.6C85,57.5,85,57.4,85,57.2c0-0.2,0.1-0.3,0.2-0.4c0.1-0.1,0.3-0.2,0.4-0.2
			s0.3,0.1,0.4,0.2c0.1,0.1,0.2,0.3,0.2,0.4s-0.1,0.3-0.2,0.4c-0.1,0.1-0.3,0.2-0.4,0.2S85.3,57.8,85.2,57.6z M85.2,59.7H86v7.9
			h-0.8V59.7z"/>
		<path class="st0" d="M89.8,67.2c-0.6-0.3-1.1-0.8-1.4-1.4c-0.3-0.6-0.5-1.3-0.5-2.1c0-0.8,0.2-1.5,0.5-2.1
			c0.3-0.6,0.8-1.1,1.4-1.4c0.6-0.3,1.3-0.5,2.1-0.5c0.6,0,1.2,0.1,1.7,0.4c0.5,0.2,0.9,0.6,1.3,1.1l-0.6,0.4
			c-0.3-0.4-0.6-0.7-1.1-0.9c-0.4-0.2-0.9-0.3-1.4-0.3c-0.6,0-1.2,0.1-1.7,0.4c-0.5,0.3-0.9,0.7-1.2,1.2c-0.3,0.5-0.4,1.1-0.4,1.7
			c0,0.7,0.1,1.2,0.4,1.7s0.7,0.9,1.2,1.2s1,0.4,1.7,0.4c0.5,0,1-0.1,1.4-0.3c0.4-0.2,0.8-0.5,1.1-0.9l0.6,0.4
			c-0.3,0.5-0.7,0.8-1.3,1.1c-0.5,0.2-1.1,0.4-1.7,0.4C91.1,67.7,90.4,67.6,89.8,67.2z"/>
		<path class="st0" d="M107.3,56.4v11.3h-0.7v-1.9c-0.3,0.6-0.8,1.1-1.3,1.4c-0.6,0.3-1.2,0.5-1.9,0.5c-0.7,0-1.4-0.2-2-0.5
			c-0.6-0.3-1.1-0.8-1.4-1.4c-0.3-0.6-0.5-1.3-0.5-2.1c0-0.8,0.2-1.5,0.5-2.1c0.3-0.6,0.8-1.1,1.4-1.4c0.6-0.3,1.3-0.5,2-0.5
			c0.7,0,1.3,0.2,1.9,0.5c0.6,0.3,1,0.8,1.3,1.4v-5.2H107.3z M104.9,66.6c0.5-0.3,0.9-0.7,1.1-1.2c0.3-0.5,0.4-1.1,0.4-1.7
			c0-0.6-0.1-1.2-0.4-1.7c-0.3-0.5-0.7-0.9-1.1-1.2s-1-0.4-1.6-0.4c-0.6,0-1.2,0.1-1.6,0.4s-0.9,0.7-1.1,1.2
			c-0.3,0.5-0.4,1.1-0.4,1.7c0,0.6,0.1,1.2,0.4,1.7c0.3,0.5,0.7,0.9,1.1,1.2c0.5,0.3,1,0.4,1.6,0.4
			C103.9,67.1,104.5,66.9,104.9,66.6z"/>
		<path class="st0" d="M116.7,63.9h-6.8c0,0.6,0.2,1.2,0.5,1.6c0.3,0.5,0.7,0.9,1.2,1.1c0.5,0.3,1.1,0.4,1.7,0.4
			c0.5,0,1-0.1,1.4-0.3s0.8-0.5,1.1-0.8l0.4,0.5c-0.3,0.4-0.8,0.7-1.3,1s-1.1,0.3-1.7,0.3c-0.8,0-1.5-0.2-2.1-0.5
			c-0.6-0.3-1.1-0.8-1.5-1.4c-0.3-0.6-0.5-1.3-0.5-2.1c0-0.8,0.2-1.5,0.5-2.1c0.3-0.6,0.8-1.1,1.4-1.4c0.6-0.3,1.2-0.5,1.9-0.5
			s1.4,0.2,1.9,0.5c0.6,0.3,1,0.8,1.4,1.4s0.5,1.3,0.5,2.1L116.7,63.9z M111.5,60.7c-0.4,0.2-0.8,0.6-1.1,1c-0.3,0.5-0.4,1-0.5,1.5
			h6.1c0-0.6-0.2-1.1-0.5-1.5s-0.6-0.8-1.1-1c-0.4-0.3-0.9-0.4-1.5-0.4S111.9,60.5,111.5,60.7z"/>
		<path class="st0" d="M118.8,67.4c-0.6-0.2-1-0.4-1.4-0.7l0.3-0.6c0.3,0.3,0.7,0.5,1.3,0.7c0.5,0.2,1,0.3,1.6,0.3
			c0.8,0,1.4-0.1,1.8-0.4s0.6-0.6,0.6-1.1c0-0.3-0.1-0.6-0.3-0.8c-0.2-0.2-0.5-0.3-0.8-0.4c-0.3-0.1-0.7-0.2-1.3-0.3
			c-0.6-0.1-1.1-0.2-1.5-0.4c-0.4-0.1-0.7-0.3-1-0.6c-0.3-0.3-0.4-0.7-0.4-1.2c0-0.6,0.3-1.1,0.8-1.6c0.5-0.4,1.3-0.6,2.2-0.6
			c0.5,0,1,0.1,1.5,0.2c0.5,0.1,0.9,0.3,1.2,0.6l-0.3,0.6c-0.3-0.2-0.7-0.4-1.1-0.5c-0.4-0.1-0.8-0.2-1.3-0.2
			c-0.7,0-1.3,0.1-1.7,0.4c-0.4,0.3-0.6,0.6-0.6,1.1c0,0.4,0.1,0.6,0.3,0.8c0.2,0.2,0.5,0.3,0.8,0.4c0.3,0.1,0.7,0.2,1.3,0.3
			c0.6,0.1,1.1,0.2,1.5,0.4c0.4,0.1,0.7,0.3,1,0.6c0.3,0.3,0.4,0.7,0.4,1.2c0,0.7-0.3,1.2-0.8,1.6c-0.5,0.4-1.3,0.6-2.3,0.6
			C120,67.7,119.4,67.6,118.8,67.4z"/>
		<path class="st0" d="M125.4,57.6c-0.1-0.1-0.2-0.3-0.2-0.4c0-0.2,0.1-0.3,0.2-0.4c0.1-0.1,0.3-0.2,0.4-0.2c0.2,0,0.3,0.1,0.4,0.2
			c0.1,0.1,0.2,0.3,0.2,0.4s-0.1,0.3-0.2,0.4c-0.1,0.1-0.3,0.2-0.4,0.2C125.7,57.8,125.5,57.8,125.4,57.6z M125.5,59.7h0.8v7.9h-0.8
			V59.7z"/>
		<path class="st0" d="M136.2,59.7v7.1c0,1.3-0.3,2.3-1,2.9c-0.6,0.6-1.6,0.9-2.9,0.9c-0.7,0-1.4-0.1-2.1-0.3s-1.2-0.5-1.6-0.9
			l0.4-0.6c0.4,0.4,0.9,0.6,1.4,0.9c0.6,0.2,1.2,0.3,1.8,0.3c1.1,0,1.8-0.3,2.3-0.8c0.5-0.5,0.8-1.3,0.8-2.3v-1.3
			c-0.3,0.6-0.8,1-1.4,1.3c-0.6,0.3-1.2,0.5-1.9,0.5c-0.7,0-1.4-0.2-2-0.5c-0.6-0.3-1.1-0.8-1.4-1.4c-0.3-0.6-0.5-1.3-0.5-2
			c0-0.7,0.2-1.4,0.5-2c0.3-0.6,0.8-1,1.4-1.4c0.6-0.3,1.3-0.5,2-0.5c0.7,0,1.4,0.2,2,0.5c0.6,0.3,1,0.8,1.4,1.4v-1.8H136.2z
			 M133.8,66.3c0.5-0.3,0.9-0.6,1.2-1.1c0.3-0.5,0.4-1,0.4-1.6s-0.1-1.2-0.4-1.6c-0.3-0.5-0.7-0.8-1.2-1.1c-0.5-0.3-1.1-0.4-1.7-0.4
			s-1.2,0.1-1.7,0.4s-0.9,0.6-1.2,1.1c-0.3,0.5-0.4,1-0.4,1.6s0.1,1.2,0.4,1.6s0.7,0.9,1.2,1.1s1,0.4,1.7,0.4S133.3,66.6,133.8,66.3
			z"/>
		<path class="st0" d="M145.2,60.5c0.6,0.6,0.9,1.4,0.9,2.5v4.6h-0.8v-4.6c0-0.9-0.2-1.6-0.7-2c-0.5-0.5-1.1-0.7-1.9-0.7
			c-0.9,0-1.7,0.3-2.2,0.8c-0.5,0.6-0.8,1.3-0.8,2.2v4.2h-0.8v-7.9h0.7v1.7c0.3-0.6,0.7-1,1.2-1.3c0.5-0.3,1.2-0.5,1.9-0.5
			C143.8,59.7,144.6,60,145.2,60.5z"/>
		<path class="st0" d="M159.9,67.8l-1.5-1.6c-0.4,0.5-1,0.9-1.5,1.1s-1.3,0.4-2,0.4c-0.7,0-1.3-0.1-1.8-0.3
			c-0.5-0.2-0.9-0.5-1.2-0.9c-0.3-0.4-0.4-0.9-0.4-1.4c0-0.6,0.2-1.2,0.6-1.7c0.4-0.5,1.1-1.1,2.1-1.6l0,0c-0.5-0.5-0.9-1-1.1-1.4
			c-0.2-0.4-0.3-0.8-0.3-1.2c0-0.7,0.2-1.2,0.7-1.6s1.1-0.6,1.8-0.6c0.7,0,1.3,0.2,1.7,0.5c0.4,0.4,0.6,0.9,0.6,1.5
			c0,0.5-0.2,1-0.5,1.4s-1,0.9-1.9,1.4l3.1,3.3c0.3-0.6,0.6-1.3,0.8-2.2l0.6,0.2c-0.2,1-0.5,1.8-0.9,2.4l1.6,1.7L159.9,67.8z
			 M157.9,65.7l-3.4-3.5c-0.9,0.5-1.6,1-1.9,1.4s-0.5,0.9-0.5,1.4c0,0.6,0.3,1.1,0.8,1.5c0.5,0.4,1.2,0.6,2,0.6
			C156.2,67.1,157.2,66.7,157.9,65.7z M153.7,60.1c0.2,0.3,0.5,0.7,1,1.3c0.8-0.5,1.4-0.9,1.7-1.2c0.3-0.3,0.5-0.7,0.5-1.1
			c0-0.4-0.1-0.8-0.4-1.1s-0.7-0.4-1.2-0.4c-0.6,0-1,0.1-1.3,0.4c-0.3,0.3-0.5,0.7-0.5,1.1C153.4,59.5,153.5,59.8,153.7,60.1z"/>
		<path class="st0" d="M176.5,59.7l-3,7.9h-0.7l-2.7-6.9l-2.7,6.9h-0.7l-3-7.9h0.7l2.6,7.1l2.7-7.1h0.7l2.7,7.1l2.7-7.1H176.5z"/>
		<path class="st0" d="M184.3,63.9h-6.8c0,0.6,0.2,1.2,0.5,1.6c0.3,0.5,0.7,0.9,1.2,1.1c0.5,0.3,1.1,0.4,1.7,0.4
			c0.5,0,1-0.1,1.4-0.3s0.8-0.5,1.1-0.8l0.4,0.5c-0.3,0.4-0.8,0.7-1.3,1s-1.1,0.3-1.7,0.3c-0.8,0-1.5-0.2-2.1-0.5
			c-0.6-0.3-1.1-0.8-1.5-1.4c-0.3-0.6-0.5-1.3-0.5-2.1c0-0.8,0.2-1.5,0.5-2.1c0.3-0.6,0.8-1.1,1.4-1.4c0.6-0.3,1.2-0.5,1.9-0.5
			s1.4,0.2,1.9,0.5c0.6,0.3,1,0.8,1.4,1.4s0.5,1.3,0.5,2.1L184.3,63.9z M179,60.7c-0.4,0.2-0.8,0.6-1.1,1c-0.3,0.5-0.4,1-0.5,1.5
			h6.1c0-0.6-0.2-1.1-0.5-1.5s-0.6-0.8-1.1-1c-0.4-0.3-0.9-0.4-1.5-0.4S179.5,60.5,179,60.7z"/>
		<path class="st0" d="M192.2,60.2c0.6,0.3,1.1,0.8,1.4,1.4c0.3,0.6,0.5,1.3,0.5,2.1c0,0.8-0.2,1.5-0.5,2.1
			c-0.3,0.6-0.8,1.1-1.4,1.4c-0.6,0.3-1.3,0.5-2,0.5c-0.7,0-1.4-0.2-1.9-0.5s-1-0.8-1.3-1.4v1.9h-0.7V56.4h0.8v5.2
			c0.3-0.6,0.8-1,1.3-1.4c0.6-0.3,1.2-0.5,1.9-0.5C191,59.7,191.6,59.8,192.2,60.2z M191.8,66.6c0.5-0.3,0.9-0.7,1.1-1.2
			c0.3-0.5,0.4-1.1,0.4-1.7c0-0.6-0.1-1.2-0.4-1.7c-0.3-0.5-0.7-0.9-1.1-1.2s-1-0.4-1.6-0.4c-0.6,0-1.2,0.1-1.6,0.4
			s-0.9,0.7-1.1,1.2c-0.3,0.5-0.4,1.1-0.4,1.7c0,0.6,0.1,1.2,0.4,1.7c0.3,0.5,0.7,0.9,1.1,1.2c0.5,0.3,1,0.4,1.6,0.4
			C190.8,67.1,191.3,66.9,191.8,66.6z"/>
		<path class="st0" d="M206.6,56.4v11.3h-0.7v-1.9c-0.3,0.6-0.8,1.1-1.3,1.4c-0.6,0.3-1.2,0.5-1.9,0.5c-0.7,0-1.4-0.2-2-0.5
			c-0.6-0.3-1.1-0.8-1.4-1.4c-0.3-0.6-0.5-1.3-0.5-2.1c0-0.8,0.2-1.5,0.5-2.1c0.3-0.6,0.8-1.1,1.4-1.4c0.6-0.3,1.3-0.5,2-0.5
			c0.7,0,1.3,0.2,1.9,0.5c0.6,0.3,1,0.8,1.3,1.4v-5.2H206.6z M204.2,66.6c0.5-0.3,0.9-0.7,1.1-1.2c0.3-0.5,0.4-1.1,0.4-1.7
			c0-0.6-0.1-1.2-0.4-1.7c-0.3-0.5-0.7-0.9-1.1-1.2s-1-0.4-1.6-0.4c-0.6,0-1.2,0.1-1.6,0.4s-0.9,0.7-1.1,1.2
			c-0.3,0.5-0.4,1.1-0.4,1.7c0,0.6,0.1,1.2,0.4,1.7c0.3,0.5,0.7,0.9,1.1,1.2c0.5,0.3,1,0.4,1.6,0.4
			C203.2,67.1,203.8,66.9,204.2,66.6z"/>
		<path class="st0" d="M216,63.9h-6.8c0,0.6,0.2,1.2,0.5,1.6c0.3,0.5,0.7,0.9,1.2,1.1c0.5,0.3,1.1,0.4,1.7,0.4c0.5,0,1-0.1,1.4-0.3
			s0.8-0.5,1.1-0.8l0.4,0.5c-0.3,0.4-0.8,0.7-1.3,1s-1.1,0.3-1.7,0.3c-0.8,0-1.5-0.2-2.1-0.5c-0.6-0.3-1.1-0.8-1.5-1.4
			c-0.3-0.6-0.5-1.3-0.5-2.1c0-0.8,0.2-1.5,0.5-2.1c0.3-0.6,0.8-1.1,1.4-1.4c0.6-0.3,1.2-0.5,1.9-0.5s1.4,0.2,1.9,0.5
			c0.6,0.3,1,0.8,1.4,1.4s0.5,1.3,0.5,2.1L216,63.9z M210.8,60.7c-0.4,0.2-0.8,0.6-1.1,1c-0.3,0.5-0.4,1-0.5,1.5h6.1
			c0-0.6-0.2-1.1-0.5-1.5s-0.6-0.8-1.1-1c-0.4-0.3-0.9-0.4-1.5-0.4S211.2,60.5,210.8,60.7z"/>
		<path class="st0" d="M224.2,59.7l-3.6,7.9h-0.8l-3.6-7.9h0.8l3.2,7.1l3.2-7.1H224.2z"/>
		<path class="st0" d="M231.9,63.9H225c0,0.6,0.2,1.2,0.5,1.6c0.3,0.5,0.7,0.9,1.2,1.1c0.5,0.3,1.1,0.4,1.7,0.4c0.5,0,1-0.1,1.4-0.3
			s0.8-0.5,1.1-0.8l0.4,0.5c-0.3,0.4-0.8,0.7-1.3,1s-1.1,0.3-1.7,0.3c-0.8,0-1.5-0.2-2.1-0.5c-0.6-0.3-1.1-0.8-1.5-1.4
			c-0.3-0.6-0.5-1.3-0.5-2.1c0-0.8,0.2-1.5,0.5-2.1c0.3-0.6,0.8-1.1,1.4-1.4c0.6-0.3,1.2-0.5,1.9-0.5s1.4,0.2,1.9,0.5
			c0.6,0.3,1,0.8,1.4,1.4s0.5,1.3,0.5,2.1L231.9,63.9z M226.6,60.7c-0.4,0.2-0.8,0.6-1.1,1c-0.3,0.5-0.4,1-0.5,1.5h6.1
			c0-0.6-0.2-1.1-0.5-1.5s-0.6-0.8-1.1-1c-0.4-0.3-0.9-0.4-1.5-0.4S227,60.5,226.6,60.7z"/>
		<path class="st0" d="M233.8,56.4h0.8v11.3h-0.8V56.4z"/>
		<path class="st0" d="M238.4,67.2c-0.6-0.3-1.1-0.8-1.4-1.4c-0.3-0.6-0.5-1.3-0.5-2.1c0-0.8,0.2-1.5,0.5-2.1
			c0.3-0.6,0.8-1.1,1.4-1.4c0.6-0.3,1.3-0.5,2-0.5s1.4,0.2,2,0.5c0.6,0.3,1.1,0.8,1.4,1.4c0.3,0.6,0.5,1.3,0.5,2.1
			c0,0.8-0.2,1.5-0.5,2.1c-0.3,0.6-0.8,1.1-1.4,1.4c-0.6,0.3-1.3,0.5-2,0.5S239,67.6,238.4,67.2z M242.1,66.6
			c0.5-0.3,0.9-0.7,1.1-1.2c0.3-0.5,0.4-1.1,0.4-1.7c0-0.6-0.1-1.2-0.4-1.7c-0.3-0.5-0.7-0.9-1.1-1.2s-1-0.4-1.6-0.4
			c-0.6,0-1.2,0.1-1.6,0.4s-0.9,0.7-1.1,1.2c-0.3,0.5-0.4,1.1-0.4,1.7c0,0.6,0.1,1.2,0.4,1.7c0.3,0.5,0.7,0.9,1.1,1.2
			c0.5,0.3,1,0.4,1.6,0.4C241,67.1,241.6,66.9,242.1,66.6z"/>
		<path class="st0" d="M252.3,60.2c0.6,0.3,1.1,0.8,1.4,1.4c0.3,0.6,0.5,1.3,0.5,2.1c0,0.8-0.2,1.5-0.5,2.1
			c-0.3,0.6-0.8,1.1-1.4,1.4s-1.3,0.5-2,0.5c-0.7,0-1.3-0.2-1.9-0.5c-0.6-0.3-1-0.8-1.3-1.4v4.8h-0.8V59.7h0.7v1.9
			c0.3-0.6,0.8-1.1,1.3-1.4c0.6-0.3,1.2-0.5,1.9-0.5C251,59.7,251.7,59.9,252.3,60.2z M251.9,66.6c0.5-0.3,0.9-0.7,1.1-1.2
			c0.3-0.5,0.4-1.1,0.4-1.7c0-0.6-0.1-1.2-0.4-1.7c-0.3-0.5-0.7-0.9-1.1-1.2s-1-0.4-1.6-0.4c-0.6,0-1.2,0.1-1.6,0.4
			s-0.9,0.7-1.1,1.2c-0.3,0.5-0.4,1.1-0.4,1.7c0,0.6,0.1,1.2,0.4,1.7c0.3,0.5,0.7,0.9,1.1,1.2c0.5,0.3,1,0.4,1.6,0.4
			C250.8,67.1,251.4,66.9,251.9,66.6z"/>
		<path class="st0" d="M262.8,63.9H256c0,0.6,0.2,1.2,0.5,1.6c0.3,0.5,0.7,0.9,1.2,1.1c0.5,0.3,1.1,0.4,1.7,0.4c0.5,0,1-0.1,1.4-0.3
			s0.8-0.5,1.1-0.8l0.4,0.5c-0.3,0.4-0.8,0.7-1.3,1s-1.1,0.3-1.7,0.3c-0.8,0-1.5-0.2-2.1-0.5c-0.6-0.3-1.1-0.8-1.5-1.4
			c-0.3-0.6-0.5-1.3-0.5-2.1c0-0.8,0.2-1.5,0.5-2.1c0.3-0.6,0.8-1.1,1.4-1.4c0.6-0.3,1.2-0.5,1.9-0.5s1.4,0.2,1.9,0.5
			c0.6,0.3,1,0.8,1.4,1.4s0.5,1.3,0.5,2.1L262.8,63.9z M257.6,60.7c-0.4,0.2-0.8,0.6-1.1,1c-0.3,0.5-0.4,1-0.5,1.5h6.1
			c0-0.6-0.2-1.1-0.5-1.5s-0.6-0.8-1.1-1c-0.4-0.3-0.9-0.4-1.5-0.4S258,60.5,257.6,60.7z"/>
		<path class="st0" d="M266.6,60.1c0.5-0.3,1.1-0.5,1.9-0.5v0.7l-0.2,0c-0.9,0-1.6,0.3-2.1,0.8s-0.7,1.3-0.7,2.3v4.1h-0.8v-7.9h0.7
			v1.7C265.7,60.9,266.1,60.5,266.6,60.1z"/>
	</g>
</g>
<g>
	<g>
		<g>
			<path class="st1" d="M32.1,23.6"/>
		</g>
		<path class="st0" d="M0,65.9l1-0.5c2.6-1.4,5-2.7,7.5-3.9c1.4-0.7,1.8-1.3,1.8-3c0-11.1,0-22.3,0.1-33.4l0-8.9
			c0-0.8,0.1-1.6,0.1-2.5l0.2-4.4l2.7,1.4c3.3,1.9,6.5,3.7,9.7,5.6c3,1.7,6,3.5,9.1,5.2l10.4-5.7c-3.8-2.1-7.6-4.2-11.4-6.2
			C28,7.8,24.9,6,21.8,4.3c-4.5-2.5-7.5-4-9.6-4.3L12,0c-0.2,0-0.4,0-0.6,0C9.2,0,6.8,1.4,1.2,4.8c-0.4,0.3-1,1.2-1,1.7
			C0.1,19.7,0.1,32.9,0,46.2l0,7.6c0,3.4,0,6.8,0,10.4L0,65.9z"/>
	</g>
	<path class="st2" d="M30.6,37.8c1.7-0.9,3.3-1.8,4.6-2.5c1.1-0.6,2.3-1.2,3.6-1.7c2.4-1.1,4.9-2.2,5.8-3.7c1.1-1.9,0.8-4.7,0.6-7.6
		c-0.1-1.1-0.2-2.2-0.2-3.4c0-0.1,0-0.2,0-0.2L30.4,26c-3.5,1.8-5.5,3-8.7,4.9c-0.2,0.1-0.6,0.5-1.1,1c4.5,3.2,7.2,5.2,8.8,6.5
		L30.6,37.8z"/>
	<path class="st0" d="M20.1,47.4c3.3,2.4,6.7,4.7,10.1,7l18.4,12.5c0-0.2,0-0.4,0-0.5l0-2.9c0-5-0.9-8.4-5.5-10.9
		c-3.5-1.9-6.6-4.3-9.9-6.8l-2.1-1.5L19,35.3c-0.2,3-0.2,6.3,0.1,10.1C19.1,46.1,19.6,47.1,20.1,47.4z"/>
</g>
<g>
	<path class="st2" d="M303.1,54.9c-4.3-3.5-6.9-5.6-8.4-7l-1.3,0.6c-1.7,0.8-3.3,1.6-4.7,2.2c-1.1,0.6-2.4,1-3.7,1.5
		c-2.5,0.9-5.1,1.9-6,3.4c-1.1,1.8-1.1,4.6-1,7.6c0,1.1,0.1,2.3,0,3.4c0,0.1,0,0.2,0,0.2l15-6.6c3.7-1.7,5.8-2.8,8.9-4.5
		C302.1,55.7,302.6,55.3,303.1,54.9z"/>
	<path class="st0" d="M281.7,33.1c3.4,2.1,6.4,4.6,9.6,7.3l2,1.7l11.7,9.5c0.3-3,0.5-6.3,0.5-10.1c0-0.7-0.5-1.7-0.9-2
		c-3.2-2.6-6.5-5-9.7-7.5l-17.8-13.4c0,0.2,0,0.4,0,0.5l-0.2,2.9C276.5,26.9,277.2,30.3,281.7,33.1z"/>
</g>
</svg>
